<?xml version="1.0" encoding="UTF-8"?>
<svg width="134px" height="112px" viewBox="0 0 134 112" version="1.1" xmlns="http://www.w3.org/2000/svg" xmlns:xlink="http://www.w3.org/1999/xlink">
    <!-- Generator: Sketch 41 (35326) - http://www.bohemiancoding.com/sketch -->
    <title>iMac_2_</title>
    <desc>Created with Sketch.</desc>
    <defs></defs>
    <g id="Page-1" stroke="none" stroke-width="1" fill="none" fill-rule="evenodd">
        <g id="[15]-Enviar-a-Apple-Care" transform="translate(-550.000000, -350.000000)" fill="#333333">
            <g id="imac_large" transform="translate(550.000000, 350.000000)">
                <g id="Light">
                    <g id="Mac">
                        <path d="M129.725958,0 L4.27404167,0 C2.319875,0 0,2.3324 0,4.2868 L0.11725,88.1132 C0.11725,90.0676 2.43433333,92.4 4.3885,92.4 L58.625,92.4 L56.1404167,103.9332 C55.2973333,107.7692 51.7770417,110.2976 47.9692083,110.0596 C47.9022083,110.0652 47.8491667,110.068 47.7765833,110.0736 C47.243375,110.0736 46.8106667,110.5048 46.8106667,111.0396 C46.8106667,111.468 47.101,111.8236 47.4890417,111.9468 C47.5309167,111.9664 47.5672083,111.9832 47.6062917,111.9888 L47.6062917,112 L48.0166667,112 L86.4020833,112 L86.4020833,111.986 C86.4439583,111.9804 86.4830417,111.9636 86.5193333,111.944 C86.9129583,111.8236 87.2005,111.468 87.2005,111.0368 C87.2005,110.502 86.7705833,110.0708 86.2345833,110.0708 C86.162,110.068 86.11175,110.0624 86.0419583,110.0568 C82.2369167,110.2948 78.7110417,107.7692 77.8679583,103.9304 L75.375,92.4 L129.725958,92.4 C131.680125,92.4 134,90.0676 134,88.1132 L134,4.2868 C134,2.3324 131.680125,0 129.725958,0 Z M69.6409167,86.3212 C69.5571667,86.4892 69.470625,86.6488 69.3812917,86.7888 C69.286375,86.9316 69.1970417,87.0604 69.1132917,87.1696 C69.0211667,87.2788 68.9485833,87.3544 68.901125,87.4076 C68.8034167,87.4888 68.7057083,87.5616 68.6024167,87.612 C68.5047083,87.6652 68.4014167,87.6848 68.2925417,87.6848 C68.22275,87.6848 68.139,87.6708 68.0412917,87.64 C67.9407917,87.6092 67.8402917,87.5784 67.737,87.5448 C67.6309167,87.5112 67.527625,87.4804 67.4243333,87.4468 C67.3154583,87.4188 67.2233333,87.4048 67.1367917,87.4048 C67.0446667,87.4048 66.941375,87.4188 66.8352917,87.4524 C66.723625,87.4832 66.61475,87.5168 66.505875,87.5532 C66.3942083,87.5896 66.2909167,87.6204 66.2015833,87.6512 C66.1094583,87.6792 66.0285,87.6932 65.969875,87.6932 C65.8805417,87.6932 65.7995833,87.6792 65.7242083,87.6512 C65.64325,87.6204 65.5595,87.57 65.4729583,87.5 C65.3864167,87.43 65.299875,87.3376 65.2049583,87.22 C65.1044583,87.1024 64.998375,86.9624 64.881125,86.786 C64.7694583,86.6236 64.6773333,86.4472 64.5824167,86.2568 C64.495875,86.0608 64.412125,85.862 64.3507083,85.652 C64.2892917,85.4476 64.23625,85.2404 64.2055417,85.0276 C64.16925,84.8176 64.1469167,84.616 64.1469167,84.4144 C64.1469167,84.1092 64.1915833,83.8236 64.2809167,83.5632 C64.37025,83.3056 64.4986667,83.076 64.655,82.8856 C64.814125,82.6924 64.998375,82.5468 65.20775,82.4404 C65.417125,82.3368 65.6460417,82.2836 65.8945,82.2836 C66.0759583,82.2836 66.2937083,82.3368 66.539375,82.4404 C66.78225,82.5468 66.9525417,82.6 67.05025,82.6 C67.08375,82.6 67.1451667,82.586 67.2289167,82.5524 C67.31825,82.5216 67.4494583,82.4768 67.6141667,82.4124 C67.778875,82.3564 67.9045,82.3172 67.9994167,82.2948 C68.097125,82.2724 68.197625,82.2612 68.298125,82.2612 C68.5745,82.2612 68.8285417,82.3256 69.0797917,82.46 C69.3254583,82.5888 69.5236667,82.7624 69.6660417,82.9808 C69.4008333,83.1404 69.2082083,83.3308 69.085375,83.5576 C68.968125,83.7788 68.9095,84.042 68.9095,84.3416 C68.9095,84.6552 68.9904583,84.9408 69.1579583,85.2012 C69.3226667,85.4616 69.554375,85.6604 69.8502917,85.792 C69.7944583,85.9712 69.721875,86.1504 69.6409167,86.3212 Z M66.9860417,82.0568 C66.9860417,81.8804 67.025125,81.7068 67.1032917,81.5304 C67.1814583,81.3568 67.2791667,81.1916 67.4131667,81.046 C67.536,80.9088 67.68675,80.7884 67.8598333,80.696 C68.030125,80.6036 68.2087917,80.5588 68.3930417,80.5476 C68.4014167,80.5728 68.4042083,80.598 68.4042083,80.6176 L68.4042083,80.6932 C68.4042083,80.8724 68.365125,81.0572 68.28975,81.2392 C68.214375,81.4212 68.1194583,81.5836 67.9938333,81.7264 C67.871,81.872 67.7314167,81.9868 67.5722917,82.0708 C67.4159583,82.1576 67.2568333,82.1968 67.0949167,82.1968 C67.0279167,82.1968 66.9944167,82.1884 66.9888333,82.1576 C66.9860417,82.1408 66.9860417,82.1072 66.9860417,82.0568 Z M128.416667,75.6 L5.58333333,75.6 L5.58333333,5.6 L128.416667,5.6 L128.416667,75.6 Z" id="iMac_2_"></path>
                    </g>
                </g>
            </g>
        </g>
    </g>
</svg>