<?xml version="1.0" encoding="UTF-8"?>
<svg width="48px" height="91px" viewBox="0 0 48 91" version="1.1" xmlns="http://www.w3.org/2000/svg" xmlns:xlink="http://www.w3.org/1999/xlink">
    <!-- Generator: Sketch 41 (35326) - http://www.bohemiancoding.com/sketch -->
    <title>Mac_Pro_1_</title>
    <desc>Created with Sketch.</desc>
    <defs></defs>
    <g id="Page-1" stroke="none" stroke-width="1" fill="none" fill-rule="evenodd">
        <g id="[15]-Enviar-a-Apple-Care" transform="translate(-334.000000, -360.000000)" fill="#333333">
            <g id="macpro_large" transform="translate(334.000000, 360.000000)">
                <g id="Group">
                    <g id="Light">
                        <g id="Mac">
                            <path d="M40.4208,0 L6.7390456,0 C2.73469168,0 0,3.48427106 0,8.47823276 L0,81.954837 C0,86.9502117 2.73469168,90.4344828 6.7390456,90.4344828 L40.4208,90.4344828 C44.4206627,90.4344828 47.1576,86.9502117 47.1576,81.954837 L47.1576,8.47823276 C47.1576,3.48427106 44.4206627,0 40.4208,0 Z M23.6753608,11.5388748 C23.7476691,11.3320059 23.8484966,11.1415283 23.9713309,10.971681 C24.0984318,10.8032468 24.2387818,10.6667472 24.4033843,10.5590737 C24.5679868,10.4514001 24.7433682,10.3906395 24.9252618,10.3824438 C24.9252618,10.4059003 24.929753,10.4375523 24.929753,10.4638349 L24.929753,10.549465 C24.929753,10.7673556 24.8969672,10.9841158 24.8221887,11.1994629 C24.7498804,11.41481 24.6533196,11.6052876 24.5327309,11.7762653 C24.4121422,11.9432865 24.28055,12.079786 24.126951,12.18209 C23.9755975,12.2826984 23.8242441,12.3338504 23.6641328,12.3338504 C23.6005823,12.3338504 23.5698176,12.3185896 23.5633054,12.2897636 L23.5633054,12.1614597 C23.5635299,11.9528952 23.6008069,11.7471567 23.6753608,11.5388748 Z M20.9471814,13.9427364 C21.0304931,13.6363896 21.1533274,13.3659339 21.3046809,13.1452173 C21.4625466,12.9174354 21.6379279,12.7422186 21.842053,12.6195669 C22.0459534,12.4994586 22.263103,12.4361544 22.506526,12.4361544 C22.6796618,12.4361544 22.8880534,12.4997412 23.1272098,12.6195669 C23.3683873,12.7425012 23.5350108,12.8058054 23.6250594,12.8058054 C23.6558241,12.8058054 23.7128623,12.786588 23.7981951,12.7532403 C23.8859981,12.7145231 24.0108534,12.6565885 24.1709647,12.5876322 C24.3245638,12.5172628 24.4471735,12.473176 24.5437343,12.4483066 C24.6402951,12.4234371 24.7366314,12.4095893 24.8331922,12.4095893 C25.0986221,12.4095893 25.3485574,12.4867412 25.5897348,12.6413277 C25.8309122,12.7959141 26.017297,12.9988265 26.155626,13.2526082 C25.8989539,13.4430859 25.7148147,13.6705851 25.5987172,13.9342581 C25.4868863,14.1965181 25.4233358,14.504278 25.4233358,14.8586681 C25.4233358,15.2297321 25.5066476,15.5719701 25.6667589,15.8771865 C25.8268702,16.1835333 26.0482863,16.4152717 26.3357231,16.5740972 C26.2809305,16.7894443 26.2106432,16.9949002 26.129577,17.1949865 C26.0485109,17.3936597 25.9629535,17.5813113 25.8773962,17.7469194 C25.7875722,17.9178971 25.7020148,18.0628749 25.618703,18.196831 C25.5376369,18.3197653 25.465104,18.4147216 25.412557,18.4754822 C25.322733,18.5775036 25.2284178,18.6588947 25.1296114,18.7156988 C25.0330506,18.7750464 24.9344687,18.8052855 24.8291501,18.8052855 C24.7611084,18.8052855 24.6800422,18.7860681 24.585727,18.7541335 C24.4891662,18.7224814 24.39283,18.6837641 24.2940236,18.6396773 C24.188705,18.5984166 24.0878775,18.5596993 23.9870501,18.5266342 C23.8862226,18.4949822 23.794153,18.4754822 23.7128623,18.4754822 C23.6207927,18.4754822 23.5199653,18.4946995 23.4168922,18.5320038 C23.3115736,18.567895 23.2042339,18.6080253 23.0989153,18.649286 C22.9935966,18.6905467 22.8950148,18.729264 22.8029452,18.7623291 C22.7131212,18.7982203 22.6385673,18.8134811 22.5792834,18.8134811 C22.4982173,18.8134811 22.4191722,18.7982203 22.3468638,18.7623291 C22.2635521,18.729264 22.184507,18.6713294 22.1011952,18.5899384 C22.020129,18.5071343 21.9323261,18.3994607 21.8380109,18.2601351 C21.7459413,18.1208095 21.6428682,17.9523753 21.533283,17.7469194 C21.4252696,17.5567244 21.3287088,17.3470294 21.2411304,17.1192476 C21.1533274,16.8900527 21.0787735,16.6569013 21.015223,16.4099021 C20.9516726,16.1614899 20.9011466,15.9173168 20.8683608,15.6717306 C20.835575,15.4204923 20.822326,15.1819714 20.822326,14.9513635 C20.822326,14.5831256 20.859603,14.2476702 20.9471814,13.9427364 Z M31.4384,76.3040948 C31.4384,79.0032815 30.2322882,80.5432112 28.07,80.5432112 L19.0876,80.5432112 C16.9210451,80.5432112 15.7192,79.0032815 15.7192,76.3040948 L15.7192,33.912931 C15.7192,31.2137443 16.9210451,29.6738147 19.0876,29.6738147 L28.07,29.6738147 C30.2322882,29.6738147 31.4384,31.2137443 31.4384,33.912931 L31.4384,76.3040948 Z M28.07,31.0882665 L19.0876,31.0882665 C17.6380652,31.0882665 16.842,32.1121544 16.842,33.9143441 L16.842,76.3040948 C16.842,78.1091106 17.6380652,79.1301724 19.0876,79.1301724 L28.07,79.1301724 C29.5172892,79.1301724 30.3156,78.1091106 30.3156,76.3040948 L30.3156,33.912931 C30.3156,32.1107414 29.5172892,31.0882665 28.07,31.0882665 Z" id="Mac_Pro_1_"></path>
                        </g>
                    </g>
                </g>
            </g>
        </g>
    </g>
</svg>